<svg xmlns="http://www.w3.org/2000/svg" xml:space="preserve" viewBox="0 0 202.666 202.666"><path d="M128.26 200.145H74.422c-.075-.005-.157-.003-.236-.012a2.003 2.003 0 0 1-1.075-.465l-49.646-41.14a2.003 2.003 0 0 1-.72-1.407l-5.101-76.38-3.877-2.937a1.999 1.999 0 0 1-.751-1.189L.041 13.834a2.004 2.004 0 0 1 .477-1.749 2.007 2.007 0 0 1 1.693-.645l37.344 3.981c2.688-1.378 14.499-7.064 31.318-9.826 18.649-3.062 29.988-3.082 30.463-3.074.443.006 11.814.013 30.456 3.074 16.819 2.762 28.629 8.448 31.317 9.826l37.345-3.981a2.002 2.002 0 0 1 2.17 2.394L189.65 76.615a1.999 1.999 0 0 1-.751 1.189l-3.877 2.937-5.101 76.38a2.005 2.005 0 0 1-.719 1.407l-49.647 41.14a2.011 2.011 0 0 1-1.295.477zm-50.96-4h48.067l-9.233-24.461H86.533L77.3 196.145zm24.033-28.461h16.184a2 2 0 0 1 1.871 1.294l9.753 25.839 12.116-10.04v-66.333l-22.438-10.215v43.597a2 2 0 0 1-2 2H85.847a2 2 0 0 1-2-2v-43.597L61.41 118.444v66.333l12.116 10.04 9.753-25.839a2 2 0 0 1 1.871-1.294h16.183zm-74.654-11.687 30.731 25.465V118.22l-14.606-9.869a2.001 2.001 0 0 1-.88-1.657v-8.899L21.853 83.733l4.826 72.264zm118.578-37.777v63.243l30.73-25.465 4.827-72.264-20.071 14.061v8.899a2 2 0 0 1-.88 1.657l-14.606 9.869zm-43.924 31.606h13.486v-44.179c0-.089.006-.178.018-.266l5.516-41.177-17.896 11.568a1.987 1.987 0 0 1-1.121.345h-.004a1.987 1.987 0 0 1-1.122-.346L82.314 64.205l5.515 41.177c.012.088.018.177.018.266v44.179h13.486zm-55.41-44.195 13.678 9.241 19.18-8.732-32.857-6.922v6.413zm77.963.509 19.18 8.732 13.677-9.241v-6.413l-32.857 6.922zm.884-44.792-5.585 41.694 38.745-8.162 23.98-16.8 3.975-3.011 12.268-59.361-33.767 3.6-3.684 18.097a1.999 1.999 0 0 1-.874 1.281L124.77 61.348zM44.736 94.881l38.745 8.162-5.584-41.694-35.06-22.663a1.999 1.999 0 0 1-.874-1.281l-3.684-18.097-33.766-3.6L16.781 75.07l3.976 3.012 23.979 16.799zM80.87 58.508l20.463 13.228 20.488-13.244.01-.007 35.12-22.702 3.503-17.21c-3.64-1.763-14.586-6.612-29.31-9.03-18.325-3.009-29.749-3.071-29.808-3.021h-.001c-.188 0-11.584.028-29.813 3.021-14.758 2.423-25.679 7.267-29.311 9.028l3.504 17.212L80.812 58.47l.058.038zM67.059 87.142c-.377 0-.759-.106-1.098-.329L28.014 61.84a2.002 2.002 0 0 1 2.2-3.342L68.16 83.471a2.002 2.002 0 0 1-1.101 3.671zm68.548 0a2.002 2.002 0 0 1-1.102-3.671l37.948-24.973a2 2 0 1 1 2.2 3.342l-37.948 24.973a1.99 1.99 0 0 1-1.098.329zm3.676-17.442a2 2 0 0 1-1.102-3.671l37.947-24.973a2 2 0 1 1 2.2 3.342L140.38 69.371c-.339.223-.72.329-1.097.329zm-75.899 0c-.377 0-.759-.106-1.098-.329L24.338 44.398a2.002 2.002 0 0 1 2.2-3.342l37.948 24.973a2.002 2.002 0 0 1-1.102 3.671zm37.949-21.565c-.399 0-.799-.12-1.143-.358L78.357 32.58a1.999 1.999 0 0 1 1.142-3.641h43.667a2 2 0 0 1 1.142 3.641l-21.834 15.196a1.992 1.992 0 0 1-1.141.359zM85.874 32.938l15.459 10.76 15.459-10.76H85.874z"/></svg>