<svg xmlns="http://www.w3.org/2000/svg" width="24" height="24" class="fv9"><path fill="currentColor" fill-rule="evenodd" d="M11.514 1.126a1 1 0 0 1 .972 0l9 5A1 1 0 0 1 22 7v10a1 1 0 0 1-.514.874l-9 5A1 1 0 0 1 11 22v-9.412l-3-1.666V13a1 1 0 1 1-2 0V9.81L4 8.7v7.734l4.514 2.708a1 1 0 0 1-1.028 1.716l-5-3A1 1 0 0 1 2 17V7a1 1 0 0 1 .514-.874l9-5ZM5.06 7 7.5 8.356 14.44 4.5 12 3.144 5.06 7ZM16.5 5.644 9.56 9.5 12 10.856 18.94 7 16.5 5.644ZM20 8.7l-7 3.888v7.713l7-3.89V8.7Z" clip-rule="evenodd"></path></svg>