<svg width="24" height="20" viewBox="0 0 24 20" xmlns="http://www.w3.org/2000/svg">
<path d="M20.7483 12.8162C20.6326 11.9825 20.0116 11.3325 19.2123 11.1388C16.1053 10.3838 15.3264 8.52875 15.195 6.47125C14.644 6.365 13.6638 6.25 12 6.25C10.3362 6.25 9.35599 6.365 8.805 6.47125C8.67358 8.52875 7.89472 10.3838 4.78773 11.1388C3.98837 11.3338 3.36746 11.9825 3.25171 12.8162L2.6525 17.1187C2.44151 18.6337 3.51455 20 5.00716 20H18.9929C20.4843 20 21.5585 18.6337 21.3475 17.1187L20.7483 12.8162ZM12 16.865C10.3181 16.865 8.9545 15.465 8.9545 13.74C8.9545 12.015 10.3181 10.615 12 10.615C13.6819 10.615 15.0455 12.015 15.0455 13.74C15.0455 15.465 13.6807 16.865 12 16.865ZM23.9964 5C23.9674 3.125 19.3642 0.00125 12 0C4.63461 0.00125 0.0313853 3.125 0.00365507 5C-0.0240752 6.875 0.0289741 9.315 3.06001 8.90875C6.60587 8.4325 6.38764 7.14875 6.38764 5.31375C6.38764 4.03375 9.27159 3.725 12 3.725C14.7284 3.725 17.6112 4.03375 17.6124 5.31375C17.6124 7.14875 17.3941 8.4325 20.94 8.90875C23.9698 9.315 24.0241 6.875 23.9964 5Z" />
</svg>
